<svg width="16" height="16" fill="none" xmlns="http://www.w3.org/2000/svg"><path d="M16 3.551a7.06 7.06 0 01-1.877.49c.652-.408 1.224-1.061 1.469-1.796-.653.408-1.306.653-2.123.816A3.212 3.212 0 0011.102 2a3.275 3.275 0 00-3.265 3.265c0 .245 0 .49.081.735a9.623 9.623 0 01-6.775-3.429 3.716 3.716 0 00-.408 1.633c0 1.143.571 2.123 1.47 2.694a2.819 2.819 0 01-1.47-.408c0 1.55 1.143 2.939 2.612 3.183-.245.082-.571.082-.898.082-.245 0-.408 0-.653-.082a3.259 3.259 0 003.102 2.286c-1.143.898-2.53 1.388-4.082 1.388-.245 0-.49 0-.816-.082 1.47.898 3.184 1.47 5.061 1.47 6.041 0 9.306-4.98 9.306-9.306V5.02c.653-.244 1.225-.816 1.633-1.469z" fill="currentColor"/></svg>