<svg width="96" height="96" fill="none" xmlns="http://www.w3.org/2000/svg"><g clip-path="url(#clip0_183_1430)" stroke="#0076FF" stroke-width="2.75" stroke-linecap="round" stroke-linejoin="round"><path d="M32 12H16a4 4 0 00-4 4v16a4 4 0 004 4h16a4 4 0 004-4V16a4 4 0 00-4-4zm48 48H64a4 4 0 00-4 4v16a4 4 0 004 4h16a4 4 0 004-4V64a4 4 0 00-4-4zm4-16V32a8 8 0 00-8-8H52l12 12m0-24L52 24M12 52v12a8 8 0 008 8h24L32 60m0 24l12-12"/></g><defs><clipPath id="clip0_183_1430"><path fill="#fff" d="M0 0h96v96H0z"/></clipPath></defs></svg>