<svg width="96" height="96" fill="none" xmlns="http://www.w3.org/2000/svg"><g clip-path="url(#clip0_183_1415)" stroke="#0076FF" stroke-width="2.75" stroke-linecap="round" stroke-linejoin="round"><path d="M80 32H16a4 4 0 00-4 4v8a4 4 0 004 4h64a4 4 0 004-4v-8a4 4 0 00-4-4zm-32 0v52"/><path d="M76 48v28a8 8 0 01-8 8H28a8 8 0 01-8-8V48m10-16a10 10 0 010-20c3.859-.067 7.64 1.805 10.85 5.373C44.063 20.94 46.554 26.038 48 32c1.447-5.962 3.938-11.06 7.15-14.627C58.36 13.805 62.14 11.933 66 12a10 10 0 010 20"/></g><defs><clipPath id="clip0_183_1415"><path fill="#fff" d="M0 0h96v96H0z"/></clipPath></defs></svg>