<svg width="240" height="241" fill="none" xmlns="http://www.w3.org/2000/svg"><path d="M128.67 121.993h0a6.993 6.993 0 01-6.067-3.5l-17.32-30h0c-2.153-3.724-.464-8.417 3.603-9.301h.001a52.02 52.02 0 0160.676 35.032c1.26 3.969-1.957 7.769-6.243 7.769h-34.65zM81.57 94.98h0c2.8-3.084 7.714-2.2 9.857 1.513h0l17.32 30a7.003 7.003 0 010 7h0l-17.32 30.01c-2.153 3.723-7.066 4.597-9.867 1.514v-.001A51.811 51.811 0 0168 130.004v-.001c0-13.49 5.14-25.781 13.57-35.023zm27.317 85.835l-.001-.001c-4.078-.884-5.766-5.578-3.613-9.29v-.001l17.33-30.03s0 0 0 0a6.996 6.996 0 016.067-3.5h34.65c4.295 0 7.503 3.809 6.244 7.778a52.024 52.024 0 01-60.677 35.044z" stroke="#fff"/><mask id="a" fill="#fff"><path fill-rule="evenodd" clip-rule="evenodd" d="M210 137.503a7.5 7.5 0 100-15h-7.83a82.25 82.25 0 00-2.37-13.57l7.34-2.67a7.485 7.485 0 004.234-3.878 7.51 7.51 0 00.251-5.737 7.511 7.511 0 00-3.879-4.233 7.5 7.5 0 00-5.736-.252l-7.35 2.68a82.4 82.4 0 00-6.89-11.91l6-5.04a7.503 7.503 0 001.012-10.637 7.505 7.505 0 00-10.652-.852l-6 5.04a82.998 82.998 0 00-10.54-8.85l3.91-6.78a7.505 7.505 0 00-.512-8.35 7.499 7.499 0 00-12.478.85l-3.9 6.77a81.901 81.901 0 00-12.95-4.71l1.36-7.7a7.5 7.5 0 00-14.77-2.6l-1.36 7.7a83.635 83.635 0 00-13.77 0l-1.36-7.7a7.51 7.51 0 00-3.047-4.946 7.5 7.5 0 00-11.723 7.545l1.36 7.7c-4.48 1.21-8.8 2.8-12.94 4.7l-3.9-6.76a7.503 7.503 0 00-13.748 1.806 7.504 7.504 0 00.748 5.694l3.92 6.78a82.897 82.897 0 00-10.54 8.85l-6-5.04a7.502 7.502 0 10-9.65 11.49l6 5.03a82.425 82.425 0 00-6.89 11.92L38 92.173a7.5 7.5 0 10-5.13 14.1l7.35 2.67a82.236 82.236 0 00-2.38 13.55h-7.83a7.502 7.502 0 00-7.5 7.5 7.503 7.503 0 007.5 7.5h7.83c.42 4.64 1.22 9.17 2.38 13.56l-7.35 2.68a7.5 7.5 0 00-4.93 6.722A7.5 7.5 0 0038 167.833l7.35-2.68c1.97 4.17 4.28 8.16 6.9 11.92l-6 5.04a7.51 7.51 0 00-2.833 5.123 7.502 7.502 0 009.886 7.877 7.494 7.494 0 002.577-1.51l6.01-5.05c3.26 3.23 6.79 6.2 10.54 8.85l-3.92 6.8a7.508 7.508 0 00.548 8.321 7.504 7.504 0 0012.452-.821l3.9-6.79c4.14 1.92 8.47 3.5 12.94 4.71l-1.36 7.71a7.502 7.502 0 009.021 8.759 7.49 7.49 0 004.724-3.379 7.508 7.508 0 001.025-2.78l1.37-7.72c4.579.378 9.181.378 13.76 0l1.36 7.73a7.508 7.508 0 003.047 4.945 7.49 7.49 0 005.664 1.287 7.503 7.503 0 006.059-8.832l-1.36-7.72a81.828 81.828 0 0012.94-4.7l3.91 6.77a7.5 7.5 0 0010.25 2.75 7.497 7.497 0 003.69-7.477 7.51 7.51 0 00-.94-2.773l-3.93-6.79a82.73 82.73 0 0010.54-8.85l6.01 5.04a7.502 7.502 0 109.64-11.5l-6-5.03a82.37 82.37 0 006.9-11.91l7.35 2.68a7.481 7.481 0 002.893.443 7.483 7.483 0 005.201-2.43 7.486 7.486 0 001.959-5.395 7.512 7.512 0 00-2.43-5.201 7.515 7.515 0 00-2.503-1.517l-7.34-2.68c1.15-4.38 1.95-8.92 2.37-13.56h7.84l-.01.01zm-26.57-30.6a67.44 67.44 0 00-11.9-20.53 67.84 67.84 0 00-18.2-15.1 67.04 67.04 0 00-33.33-8.77c-4.108 0-8.209.371-12.25 1.11a67 67 0 00-21.5 7.92 67.84 67.84 0 00-29.52 34.89 7.566 7.566 0 01-.36.99 67.404 67.404 0 00-3.86 22.59 67.39 67.39 0 0033.55 58.35l.1.06.1.05a67.044 67.044 0 0022.03 8.02c.07 0 .14.02.21.04a67.904 67.904 0 0023.01 0l.22-.04a67.052 67.052 0 0022.28-8.16 67.8 67.8 0 0017.62-14.83l.09-.1.09-.12a67.427 67.427 0 0011.8-20.64c2.53-7.08 3.9-14.7 3.9-22.64a67.398 67.398 0 00-4.08-23.08v-.01z"/></mask><path clip-rule="evenodd" d="M210 137.503a7.5 7.5 0 100-15h-7.83a82.25 82.25 0 00-2.37-13.57l7.34-2.67a7.485 7.485 0 004.234-3.878 7.51 7.51 0 00.251-5.737 7.511 7.511 0 00-3.879-4.233 7.5 7.5 0 00-5.736-.252l-7.35 2.68a82.4 82.4 0 00-6.89-11.91l6-5.04a7.503 7.503 0 001.012-10.637 7.505 7.505 0 00-10.652-.852l-6 5.04a82.998 82.998 0 00-10.54-8.85l3.91-6.78a7.505 7.505 0 00-.512-8.35 7.499 7.499 0 00-12.478.85l-3.9 6.77a81.901 81.901 0 00-12.95-4.71l1.36-7.7a7.5 7.5 0 00-14.77-2.6l-1.36 7.7a83.635 83.635 0 00-13.77 0l-1.36-7.7a7.51 7.51 0 00-3.047-4.946 7.5 7.5 0 00-11.723 7.545l1.36 7.7c-4.48 1.21-8.8 2.8-12.94 4.7l-3.9-6.76a7.503 7.503 0 00-13.748 1.806 7.504 7.504 0 00.748 5.694l3.92 6.78a82.897 82.897 0 00-10.54 8.85l-6-5.04a7.502 7.502 0 10-9.65 11.49l6 5.03a82.425 82.425 0 00-6.89 11.92L38 92.173a7.5 7.5 0 10-5.13 14.1l7.35 2.67a82.236 82.236 0 00-2.38 13.55h-7.83a7.502 7.502 0 00-7.5 7.5 7.503 7.503 0 007.5 7.5h7.83c.42 4.64 1.22 9.17 2.38 13.56l-7.35 2.68a7.5 7.5 0 00-4.93 6.722A7.5 7.5 0 0038 167.833l7.35-2.68c1.97 4.17 4.28 8.16 6.9 11.92l-6 5.04a7.51 7.51 0 00-2.833 5.123 7.502 7.502 0 009.886 7.877 7.494 7.494 0 002.577-1.51l6.01-5.05c3.26 3.23 6.79 6.2 10.54 8.85l-3.92 6.8a7.508 7.508 0 00.548 8.321 7.504 7.504 0 0012.452-.821l3.9-6.79c4.14 1.92 8.47 3.5 12.94 4.71l-1.36 7.71a7.502 7.502 0 009.021 8.759 7.49 7.49 0 004.724-3.379 7.508 7.508 0 001.025-2.78l1.37-7.72c4.579.378 9.181.378 13.76 0l1.36 7.73a7.508 7.508 0 003.047 4.945 7.49 7.49 0 005.664 1.287 7.503 7.503 0 006.059-8.832l-1.36-7.72a81.828 81.828 0 0012.94-4.7l3.91 6.77a7.5 7.5 0 0010.25 2.75 7.497 7.497 0 003.69-7.477 7.51 7.51 0 00-.94-2.773l-3.93-6.79a82.73 82.73 0 0010.54-8.85l6.01 5.04a7.502 7.502 0 109.64-11.5l-6-5.03a82.37 82.37 0 006.9-11.91l7.35 2.68a7.481 7.481 0 002.893.443 7.483 7.483 0 005.201-2.43 7.486 7.486 0 001.959-5.395 7.512 7.512 0 00-2.43-5.201 7.515 7.515 0 00-2.503-1.517l-7.34-2.68c1.15-4.38 1.95-8.92 2.37-13.56h7.84l-.01.01zm-26.57-30.6a67.44 67.44 0 00-11.9-20.53 67.84 67.84 0 00-18.2-15.1 67.04 67.04 0 00-33.33-8.77c-4.108 0-8.209.371-12.25 1.11a67 67 0 00-21.5 7.92 67.84 67.84 0 00-29.52 34.89 7.566 7.566 0 01-.36.99 67.404 67.404 0 00-3.86 22.59 67.39 67.39 0 0033.55 58.35l.1.06.1.05a67.044 67.044 0 0022.03 8.02c.07 0 .14.02.21.04a67.904 67.904 0 0023.01 0l.22-.04a67.052 67.052 0 0022.28-8.16 67.8 67.8 0 0017.62-14.83l.09-.1.09-.12a67.427 67.427 0 0011.8-20.64c2.53-7.08 3.9-14.7 3.9-22.64a67.398 67.398 0 00-4.08-23.08v-.01z" stroke="#fff" stroke-width="2" mask="url(#a)"/><path d="M170.04 104.073c1.38 4.35-2.16 8.42-6.72 8.42h-34.65a7.503 7.503 0 01-6.5-3.75l-17.32-30c-2.29-3.96-.53-9.07 3.93-10.04a52.521 52.521 0 0161.26 35.37zM81.2 84.643c3.07-3.38 8.38-2.35 10.66 1.6l17.32 30a7.504 7.504 0 010 7.5l-17.32 30.01c-2.29 3.96-7.6 4.98-10.67 1.6a52.309 52.309 0 01-13.69-35.35c0-13.62 5.19-26.03 13.7-35.36zm27.58 86.66c-4.47-.97-6.23-6.08-3.94-10.03l17.33-30.03a7.498 7.498 0 016.5-3.75h34.65c4.57 0 8.1 4.08 6.72 8.43a52.52 52.52 0 01-61.26 35.38z" fill="url(#paint0_linear_224_122)"/><path fill-rule="evenodd" clip-rule="evenodd" d="M210 127.503a7.5 7.5 0 100-15h-7.83a82.242 82.242 0 00-2.37-13.57l7.34-2.67a7.508 7.508 0 004.234-3.878 7.509 7.509 0 00.251-5.737 7.511 7.511 0 00-3.879-4.233 7.5 7.5 0 00-5.736-.252l-7.35 2.68a82.4 82.4 0 00-6.89-11.91l6-5.04a7.503 7.503 0 001.012-10.637 7.505 7.505 0 00-10.652-.852l-6 5.04a82.998 82.998 0 00-10.54-8.85l3.91-6.78a7.505 7.505 0 00-.512-8.35 7.499 7.499 0 00-12.478.85l-3.9 6.77a81.901 81.901 0 00-12.95-4.71l1.36-7.7a7.5 7.5 0 00-14.77-2.6l-1.36 7.7a83.635 83.635 0 00-13.77 0l-1.36-7.7a7.51 7.51 0 00-3.047-4.946 7.5 7.5 0 00-11.723 7.545l1.36 7.7c-4.48 1.21-8.8 2.8-12.94 4.7l-3.9-6.76a7.503 7.503 0 00-13.748 1.806 7.504 7.504 0 00.748 5.694l3.92 6.78a82.897 82.897 0 00-10.54 8.85l-6-5.04a7.502 7.502 0 10-9.65 11.49l6 5.03a82.425 82.425 0 00-6.89 11.92L38 82.173a7.5 7.5 0 10-5.13 14.1l7.35 2.67a82.223 82.223 0 00-2.38 13.55h-7.83a7.502 7.502 0 00-7.5 7.5 7.503 7.503 0 007.5 7.5h7.83c.42 4.64 1.22 9.17 2.38 13.56l-7.35 2.68a7.5 7.5 0 00-4.93 6.722A7.5 7.5 0 0038 157.833l7.35-2.68c1.97 4.17 4.28 8.16 6.9 11.92l-6 5.04a7.51 7.51 0 00-2.833 5.123 7.502 7.502 0 009.886 7.877 7.494 7.494 0 002.577-1.51l6.01-5.05c3.26 3.23 6.79 6.2 10.54 8.85l-3.92 6.8a7.508 7.508 0 00.548 8.321 7.504 7.504 0 0012.452-.821l3.9-6.79c4.14 1.92 8.47 3.5 12.94 4.71l-1.36 7.71a7.502 7.502 0 009.021 8.759 7.49 7.49 0 004.724-3.379 7.508 7.508 0 001.025-2.78l1.37-7.72c4.579.378 9.181.378 13.76 0l1.36 7.73a7.508 7.508 0 003.047 4.945 7.49 7.49 0 005.664 1.287 7.503 7.503 0 006.059-8.832l-1.36-7.72a81.828 81.828 0 0012.94-4.7l3.91 6.77a7.5 7.5 0 0010.25 2.75 7.497 7.497 0 003.69-7.477 7.51 7.51 0 00-.94-2.773l-3.93-6.79a82.73 82.73 0 0010.54-8.85l6.01 5.04a7.502 7.502 0 109.64-11.5l-6-5.03a82.37 82.37 0 006.9-11.91l7.35 2.68a7.481 7.481 0 002.893.443 7.483 7.483 0 005.201-2.43 7.486 7.486 0 001.959-5.395 7.512 7.512 0 00-2.43-5.201 7.515 7.515 0 00-2.503-1.517l-7.34-2.68c1.15-4.38 1.95-8.92 2.37-13.56h7.84l-.01.01zm-26.57-30.6a67.436 67.436 0 00-11.9-20.53 67.84 67.84 0 00-18.2-15.1 67.04 67.04 0 00-33.33-8.77c-4.108 0-8.209.371-12.25 1.11a67 67 0 00-21.5 7.92 67.84 67.84 0 00-29.52 34.89 7.588 7.588 0 01-.36.99 67.4 67.4 0 00-3.86 22.59 67.39 67.39 0 0033.55 58.35l.1.06.1.05a67.044 67.044 0 0022.03 8.02c.07 0 .14.02.21.04a67.904 67.904 0 0023.01 0l.22-.04a67.052 67.052 0 0022.28-8.16 67.8 67.8 0 0017.62-14.83l.09-.1.09-.12a67.427 67.427 0 0011.8-20.64c2.53-7.08 3.9-14.7 3.9-22.64a67.394 67.394 0 00-4.08-23.08v-.01z" fill="url(#paint1_linear_224_122)"/><defs><linearGradient id="paint0_linear_224_122" x1="170.343" y1="67.491" x2="65.343" y2="170.312" gradientUnits="userSpaceOnUse"><stop stop-color="#00E4ED"/><stop offset="1" stop-color="#0083FC"/></linearGradient><linearGradient id="paint1_linear_224_122" x1="217.5" y1="23.728" x2="24.954" y2="218.703" gradientUnits="userSpaceOnUse"><stop stop-color="#00E4ED"/><stop offset="1" stop-color="#0083FC"/></linearGradient></defs></svg>