<svg width="240" height="241" fill="none" xmlns="http://www.w3.org/2000/svg"><path d="M145.907 26.389h0a7 7 0 013.351 7.952l-19.92 73.029-.173.632H202.5a7 7 0 015.115 11.779h-.001l-105 112.5h0a7.004 7.004 0 01-8.534 1.342 7.001 7.001 0 01-3.338-7.968v-.001l19.92-73.02.173-.632H37.5a7.002 7.002 0 01-6.898-8.19 7 7 0 011.783-3.589h0l105-112.5a7.004 7.004 0 018.522-1.334z" stroke="#fff"/><path fill-rule="evenodd" clip-rule="evenodd" d="M146.15 15.952a7.503 7.503 0 013.59 8.52l-19.92 73.03h72.68a7.498 7.498 0 017.39 8.775 7.492 7.492 0 01-1.91 3.845l-105 112.5a7.503 7.503 0 01-12.72-7.1l19.92-73.02H37.5a7.497 7.497 0 01-6.879-4.513 7.498 7.498 0 011.399-8.107l105-112.5a7.5 7.5 0 019.13-1.43z" fill="url(#paint0_linear_224_114)"/><defs><linearGradient id="paint0_linear_224_114" x1="210" y1="15.003" x2="2.464" y2="192.884" gradientUnits="userSpaceOnUse"><stop stop-color="#00E4ED"/><stop offset="1" stop-color="#0083FC"/></linearGradient></defs></svg>