<svg width="240" height="241" fill="none" xmlns="http://www.w3.org/2000/svg"><path d="M152.478 92.365l.118.282.304.025 54.04 4.33.04-.499-.04.499c11.197.894 15.737 14.861 7.205 22.172l-41.17 35.27-.232.198.071.297 12.57 52.73c2.606 10.928-9.273 19.556-18.853 13.708 0 0 0 0 0 0l-46.27-28.26-.261-.159-.261.159-46.27 28.26c-9.58 5.848-21.46-2.79-18.853-13.708h0l12.57-52.73.071-.297-.232-.198-41.17-35.27c-8.532-7.311-3.992-21.278 7.205-22.172h0l54.04-4.33.304-.025.118-.282 20.82-50.06.038-.092v-.009c4.357-10.268 18.982-10.238 23.278.091l20.82 50.07z" stroke="#fff"/><path fill-rule="evenodd" clip-rule="evenodd" d="M107.88 32.103c4.48-10.77 19.76-10.77 24.24 0l20.82 50.07 54.04 4.33c11.64.93 16.36 15.45 7.49 23.05l-41.17 35.27 12.57 52.73c2.71 11.36-9.64 20.33-19.6 14.25L120 183.543l-46.27 28.26c-9.96 6.08-22.31-2.9-19.6-14.25l12.57-52.73-41.17-35.27c-8.87-7.6-4.15-22.12 7.49-23.05l54.04-4.33 20.82-50.06v-.01z" fill="url(#paint0_linear_224_123)"/><defs><linearGradient id="paint0_linear_224_123" x1="219.077" y1="24.026" x2="29.515" y2="221.994" gradientUnits="userSpaceOnUse"><stop stop-color="#00E4ED"/><stop offset="1" stop-color="#0083FC"/></linearGradient></defs></svg>