<svg width="60" height="60" fill="none" xmlns="http://www.w3.org/2000/svg"><g clip-path="url(#clip0_5_816)" stroke="#24272B" stroke-width="3" stroke-linecap="round" stroke-linejoin="round"><path d="M45 7.5H15a5 5 0 00-5 5v35a5 5 0 005 5h30a5 5 0 005-5v-35a5 5 0 00-5-5z"/><path d="M37.5 17.5h-15A2.5 2.5 0 0020 20v2.5a2.5 2.5 0 002.5 2.5h15a2.5 2.5 0 002.5-2.5V20a2.5 2.5 0 00-2.5-2.5zM20 35v.025M30 35v.025M40 35v.025M20 42.5v.025m10-.025v.025m10-.025v.025"/></g><defs><clipPath id="clip0_5_816"><path fill="#fff" d="M0 0h60v60H0z"/></clipPath></defs></svg>