<svg width="60" height="60" fill="none" xmlns="http://www.w3.org/2000/svg"><g clip-path="url(#clip0_5_793)" stroke="#24272B" stroke-width="3" stroke-linecap="round" stroke-linejoin="round"><path d="M25 12.5a5 5 0 0110 0 17.5 17.5 0 0110 15V35a10 10 0 005 7.5H10a10.001 10.001 0 005-7.5v-7.5a17.5 17.5 0 0110-15m-2.5 30V45a7.5 7.5 0 0015 0v-2.5m15-25.683A27.623 27.623 0 0045.515 7.5M7.5 16.817A27.625 27.625 0 0114.48 7.5"/></g><defs><clipPath id="clip0_5_793"><path fill="#fff" d="M0 0h60v60H0z"/></clipPath></defs></svg>