<svg width="60" height="60" fill="none" xmlns="http://www.w3.org/2000/svg"><g clip-path="url(#clip0_5_841)" stroke="#24272B" stroke-width="3" stroke-linecap="round" stroke-linejoin="round"><path d="M7.5 50l3.25-9.75c-2.809-4.154-3.825-9.074-2.86-13.844.966-4.77 3.848-9.067 8.11-12.09 4.261-3.024 9.613-4.569 15.06-4.348 5.447.22 10.619 2.193 14.553 5.548 3.935 3.356 6.364 7.868 6.837 12.696.473 4.829-1.043 9.646-4.265 13.556-3.223 3.91-7.933 6.646-13.256 7.7-5.322 1.055-10.894.355-15.679-1.968L7.5 50M30 30v.025M20 30v.025M40 30v.025"/></g><defs><clipPath id="clip0_5_841"><path fill="#fff" d="M0 0h60v60H0z"/></clipPath></defs></svg>