<?xml version="1.0" encoding="utf-8"?><svg viewBox="0 0 18 18" xmlns="http://www.w3.org/2000/svg" xmlns:xlink="http://www.w3.org/1999/xlink"><style>:root>svg{display:none}:root>svg:target{display:block}</style><svg fill="none" viewBox="0 0 18 18" id="icon-close" xmlns="http://www.w3.org/2000/svg"><path fill-rule="evenodd" clip-rule="evenodd" d="M10.587 9.065l6.829 6.865c.438.44.438 1.155 0 1.595-.438.44-1.149.44-1.587 0L9 10.66l-6.829 6.865c-.438.44-1.149.44-1.587 0a1.132 1.132 0 010-1.595l6.83-6.865L.49 2.105A1.132 1.132 0 01.49.51a1.118 1.118 0 011.587 0L9 7.47 15.923.51a1.118 1.118 0 011.587 0c.438.44.438 1.155 0 1.595l-6.923 6.96z" fill="currentColor"/></svg><svg fill="none" viewBox="0 0 16 16" id="icon-discord" xmlns="http://www.w3.org/2000/svg"><path d="M14.018 4.351c-1.1-.853-2.422-1.28-3.816-1.351l-.22.213c1.247.285 2.348.854 3.376 1.636a11.436 11.436 0 00-4.11-1.209c-.44-.071-.808-.071-1.248-.071-.44 0-.807 0-1.248.071a11.436 11.436 0 00-4.11 1.209c1.028-.782 2.129-1.351 3.376-1.636L5.798 3c-1.394.071-2.715.498-3.816 1.351C.734 6.627.073 9.187 0 11.818c1.1 1.138 2.642 1.849 4.257 1.849 0 0 .514-.57.88-1.067-.953-.213-1.834-.711-2.421-1.493.513.284 1.027.569 1.54.782.661.284 1.322.427 1.983.569.587.07 1.174.142 1.761.142s1.174-.071 1.761-.142c.661-.142 1.322-.285 1.982-.57.514-.212 1.028-.497 1.541-.781-.587.782-1.468 1.28-2.422 1.493a16.7 16.7 0 00.881 1.067c1.615 0 3.156-.711 4.257-1.85-.073-2.63-.734-5.19-1.982-7.466zm-8.44 6.187c-.734 0-1.394-.64-1.394-1.422 0-.783.66-1.423 1.394-1.423.734 0 1.394.64 1.394 1.423 0 .782-.66 1.422-1.394 1.422zm4.844 0c-.734 0-1.395-.64-1.395-1.422 0-.783.661-1.423 1.395-1.423s1.394.64 1.394 1.423c0 .782-.66 1.422-1.394 1.422z" fill="currentColor"/></svg><svg fill="none" viewBox="0 0 16 16" id="icon-medium" xmlns="http://www.w3.org/2000/svg"><path d="M1.9 4.6c0-.2-.1-.4-.2-.5L.2 2.3V2h4.6l3.6 7.9L11.6 2H16v.3l-1.3 1.2c-.1.1-.2.2-.1.4v9c0 .1 0 .3.1.4l1.2 1.2v.3H9.6v-.3l1.3-1.3c.1-.1.1-.2.1-.4V5.5l-3.6 9.1H7L2.8 5.5v6.1c0 .3.1.5.2.7l1.7 2v.3H0v-.3l1.7-2c.2-.2.3-.4.2-.7v-7z" fill="currentColor"/></svg><svg fill="none" viewBox="0 0 16 16" id="icon-telegram" xmlns="http://www.w3.org/2000/svg"><path d="M16 1.507L13.47 14.72s-.355.916-1.328.476l-5.84-4.636-.026-.014c.788-.733 6.905-6.428 7.172-6.686.414-.4.157-.638-.323-.336L4.09 9.466.604 8.25S.056 8.05.003 7.61c-.053-.44.62-.678.62-.678l14.21-5.773S16 .628 16 1.507z" fill="currentColor"/></svg><svg fill="none" viewBox="0 0 16 16" id="icon-twitter" xmlns="http://www.w3.org/2000/svg"><path d="M16 3.551a7.06 7.06 0 01-1.877.49c.652-.408 1.224-1.061 1.469-1.796-.653.408-1.306.653-2.123.816A3.212 3.212 0 0011.102 2a3.275 3.275 0 00-3.265 3.265c0 .245 0 .49.081.735a9.623 9.623 0 01-6.775-3.429 3.716 3.716 0 00-.408 1.633c0 1.143.571 2.123 1.47 2.694a2.819 2.819 0 01-1.47-.408c0 1.55 1.143 2.939 2.612 3.183-.245.082-.571.082-.898.082-.245 0-.408 0-.653-.082a3.259 3.259 0 003.102 2.286c-1.143.898-2.53 1.388-4.082 1.388-.245 0-.49 0-.816-.082 1.47.898 3.184 1.47 5.061 1.47 6.041 0 9.306-4.98 9.306-9.306V5.02c.653-.244 1.225-.816 1.633-1.469z" fill="currentColor"/></svg></svg>